<svg fill="#f87171" height="200px" width="200px" version="1.1" id="Capa_1" xmlns="http://www.w3.org/2000/svg" xmlns:xlink="http://www.w3.org/1999/xlink" viewBox="0 0 420 420" xml:space="preserve" stroke="#f87171"><g id="SVGRepo_bgCarrier" stroke-width="0"></g><g id="SVGRepo_tracerCarrier" stroke-linecap="round" stroke-linejoin="round"></g><g id="SVGRepo_iconCarrier"> <g id="XMLID_23_"> <path id="XMLID_793_" d="M210.4,270.419l43.776,23.176C250.154,314.312,231.875,330,210,330c-24.813,0-45-20.187-45-45V45.02 c0-0.007,0.001-0.013,0.001-0.02c0-24.813-20.187-45-45-45s-45,20.187-45,45H75v240c0,74.44,60.561,135,135,135 c74.44,0,135-60.56,135-135V144.41L210.4,270.419z M120.001,30c8.271,0,15,6.729,15,15s-6.729,15-15,15s-15-6.729-15-15 S111.73,30,120.001,30z M315,285c0,57.897-47.103,105-105,105s-105-47.103-105-105V87.419c4.695,1.666,9.742,2.581,15.001,2.581 c5.258,0,10.305-0.915,14.999-2.58V285c0,41.355,33.645,75,75,75s75-33.645,75-75v-9.031l-23.399-12.388L315,213.59V285z"></path> </g> </g></svg>